<svg width="32" height="32" viewBox="0 0 32 32" fill="none" xmlns="http://www.w3.org/2000/svg">
<path d="M15.9931 29.3207C23.3537 29.3207 29.3207 23.3537 29.3207 15.9931C29.3207 8.63249 23.3537 2.66553 15.9931 2.66553C8.63249 2.66553 2.66553 8.63249 2.66553 15.9931C2.66553 23.3537 8.63249 29.3207 15.9931 29.3207Z" stroke="#003BCE" stroke-width="2.66552" stroke-linecap="round" stroke-linejoin="round"/>
<path d="M15.9931 23.9896C20.4095 23.9896 23.9897 20.4094 23.9897 15.9931C23.9897 11.5767 20.4095 7.99652 15.9931 7.99652C11.5768 7.99652 7.99658 11.5767 7.99658 15.9931C7.99658 20.4094 11.5768 23.9896 15.9931 23.9896Z" stroke="#003BCE" stroke-width="2.66552" stroke-linecap="round" stroke-linejoin="round"/>
<path d="M15.9932 18.6586C17.4653 18.6586 18.6587 17.4652 18.6587 15.9931C18.6587 14.521 17.4653 13.3276 15.9932 13.3276C14.521 13.3276 13.3276 14.521 13.3276 15.9931C13.3276 17.4652 14.521 18.6586 15.9932 18.6586Z" stroke="#003BCE" stroke-width="2.66552" stroke-linecap="round" stroke-linejoin="round"/>
</svg>
