<svg width="20" height="20" viewBox="0 0 20 20" fill="none" xmlns="http://www.w3.org/2000/svg">
<g clip-path="url(#clip0_2620_1546)">
<path d="M18.1674 8.33329C18.548 10.201 18.2767 12.1428 17.3989 13.8348C16.5211 15.5267 15.0898 16.8666 13.3437 17.631C11.5975 18.3954 9.64211 18.5381 7.80351 18.0352C5.96492 17.5324 4.35427 16.4144 3.24018 14.8678C2.12609 13.3211 1.5759 11.4393 1.68135 9.53611C1.7868 7.63291 2.54152 5.82338 3.81966 4.40929C5.0978 2.99519 6.82209 2.06201 8.70498 1.76537C10.5879 1.46872 12.5156 1.82654 14.1666 2.77915" stroke="#003BCE" stroke-width="1.66666" stroke-linecap="round" stroke-linejoin="round"/>
<path d="M7.5 9.16668L9.99999 11.6667L18.3333 3.33337" stroke="#003BCE" stroke-width="1.66666" stroke-linecap="round" stroke-linejoin="round"/>
</g>
<defs>
<clipPath id="clip0_2620_1546">
<rect width="19.9999" height="19.9999" fill="white"/>
</clipPath>
</defs>
</svg>
