<svg width="20" height="20" viewBox="0 0 20 20" fill="none" xmlns="http://www.w3.org/2000/svg">
<path d="M10.5008 18.1657C12.0508 16.8274 16.6666 12.4941 16.6666 8.33329C16.6666 6.56519 15.9643 4.8695 14.714 3.61927C13.4638 2.36903 11.7681 1.66666 10 1.66666C8.23191 1.66666 6.53622 2.36903 5.28599 3.61927C4.03575 4.8695 3.33337 6.56519 3.33337 8.33329C3.33337 12.4941 7.94918 16.8274 9.49918 18.1657C9.64357 18.2743 9.81934 18.333 10 18.333C10.1807 18.333 10.3564 18.2743 10.5008 18.1657Z" stroke="#003BCE" stroke-width="1.66666" stroke-linecap="round" stroke-linejoin="round"/>
<path d="M9.99999 10.8333C11.3807 10.8333 12.5 9.71401 12.5 8.3333C12.5 6.9526 11.3807 5.83331 9.99999 5.83331C8.61928 5.83331 7.5 6.9526 7.5 8.3333C7.5 9.71401 8.61928 10.8333 9.99999 10.8333Z" stroke="#003BCE" stroke-width="1.66666" stroke-linecap="round" stroke-linejoin="round"/>
</svg>
