<svg width="32" height="32" viewBox="0 0 32 32" fill="none" xmlns="http://www.w3.org/2000/svg">
<path d="M5.33108 18.6586C5.07887 18.6595 4.8316 18.5888 4.61799 18.4547C4.40438 18.3206 4.2332 18.1287 4.12433 17.9012C4.01547 17.6737 3.97339 17.4199 4.00298 17.1695C4.03258 16.919 4.13264 16.6821 4.29153 16.4862L17.4858 2.89209C17.5848 2.77785 17.7197 2.70065 17.8683 2.67316C18.0169 2.64567 18.1705 2.66953 18.3038 2.74083C18.4371 2.81212 18.5422 2.9266 18.6018 3.06549C18.6614 3.20438 18.6721 3.35942 18.632 3.50516L16.0731 11.5284C15.9977 11.7303 15.9723 11.9475 15.9993 12.1614C16.0262 12.3753 16.1046 12.5795 16.2278 12.7564C16.351 12.9333 16.5153 13.0777 16.7065 13.1772C16.8978 13.2767 17.1103 13.3283 17.3259 13.3276H26.6552C26.9074 13.3267 27.1547 13.3974 27.3683 13.5315C27.5819 13.6656 27.7531 13.8576 27.862 14.0851C27.9708 14.3125 28.0129 14.5663 27.9833 14.8167C27.9537 15.0672 27.8537 15.3041 27.6948 15.5L14.5005 29.0941C14.4015 29.2084 14.2666 29.2856 14.118 29.313C13.9693 29.3405 13.8158 29.3167 13.6825 29.2454C13.5492 29.1741 13.4441 29.0596 13.3845 28.9207C13.3248 28.7818 13.3142 28.6268 13.3543 28.481L15.9132 20.4578C15.9886 20.2559 16.014 20.0387 15.987 19.8248C15.9601 19.6109 15.8816 19.4067 15.7585 19.2298C15.6353 19.0529 15.471 18.9085 15.2798 18.809C15.0885 18.7095 14.876 18.6579 14.6604 18.6586H5.33108Z" stroke="#003BCE" stroke-width="2.66552" stroke-linecap="round" stroke-linejoin="round"/>
</svg>
